<svg width="860" height="380" viewBox="0 0 860 380" fill="none" xmlns="http://www.w3.org/2000/svg">
  <defs>
    <linearGradient id="bg" x1="20" y1="20" x2="840" y2="360" gradientUnits="userSpaceOnUse">
      <stop stop-color="#0B1324"/>
      <stop offset="1" stop-color="#123A67"/>
    </linearGradient>
    <linearGradient id="pill" x1="530" y1="96" x2="790" y2="270" gradientUnits="userSpaceOnUse">
      <stop stop-color="#1D4ED8"/>
      <stop offset="1" stop-color="#0EA5E9"/>
    </linearGradient>
  </defs>
  <rect x="0" y="0" width="860" height="380" rx="24" fill="url(#bg)"/>
  <rect x="36" y="36" width="788" height="308" rx="20" fill="#0C1A30" stroke="#1E3A8A"/>
  <text x="64" y="98" fill="#E2E8F0" font-family="Arial, Helvetica, sans-serif" font-size="38" font-weight="700">OmniDev</text>
  <text x="64" y="134" fill="#93C5FD" font-family="Arial, Helvetica, sans-serif" font-size="19">All-in-One AI Developer Platform</text>

  <rect x="64" y="164" width="420" height="34" rx="8" fill="#132646"/>
  <text x="78" y="187" fill="#CFE1FF" font-family="Arial, Helvetica, sans-serif" font-size="15">FastAPI + Next.js 16 + GPT + Playwright + AWS</text>

  <rect x="64" y="216" width="240" height="30" rx="15" fill="#0E2A4C"/>
  <text x="82" y="236" fill="#7DD3FC" font-family="Arial, Helvetica, sans-serif" font-size="14" font-weight="700">DevOps Agent</text>

  <rect x="318" y="216" width="240" height="30" rx="15" fill="#0E2A4C"/>
  <text x="336" y="236" fill="#7DD3FC" font-family="Arial, Helvetica, sans-serif" font-size="14" font-weight="700">Stealth Scraper</text>

  <rect x="64" y="258" width="240" height="30" rx="15" fill="#0E2A4C"/>
  <text x="82" y="278" fill="#7DD3FC" font-family="Arial, Helvetica, sans-serif" font-size="14" font-weight="700">Vision + OCR</text>

  <rect x="318" y="258" width="240" height="30" rx="15" fill="#0E2A4C"/>
  <text x="336" y="278" fill="#7DD3FC" font-family="Arial, Helvetica, sans-serif" font-size="14" font-weight="700">S3 + Location APIs</text>

  <rect x="550" y="88" width="238" height="210" rx="18" fill="url(#pill)" opacity="0.26"/>
  <text x="574" y="134" fill="#E2E8F0" font-family="Arial, Helvetica, sans-serif" font-size="18" font-weight="700">Status</text>
  <text x="574" y="162" fill="#DBEAFE" font-family="Arial, Helvetica, sans-serif" font-size="14">Updated: 2026-02-15</text>
  <text x="574" y="192" fill="#DBEAFE" font-family="Arial, Helvetica, sans-serif" font-size="14">Language: TypeScript</text>
  <text x="574" y="222" fill="#DBEAFE" font-family="Arial, Helvetica, sans-serif" font-size="14">Repo: himanshu748/omnidev</text>
  <text x="574" y="258" fill="#BFDBFE" font-family="Arial, Helvetica, sans-serif" font-size="13">Production-focused AI workflows</text>
</svg>
